<svg width="512pt" height="512pt" viewBox="0 0 512 512" version="1.1" xmlns="http://www.w3.org/2000/svg">
<g id="#fbc668ff">
<path fill="#fbc668" opacity="1.00" d=" M 10.49 6.17 C 11.93 6.21 13.35 6.41 14.73 6.78 C 67.77 28.78 120.96 50.40 174.28 71.71 C 194.62 80.30 215.20 88.31 235.62 96.71 C 260.13 106.36 284.34 116.76 308.84 126.45 C 339.07 138.40 369.02 151.03 399.21 163.09 C 427.95 174.42 456.27 186.78 485.11 197.85 C 490.20 200.11 495.79 201.36 500.45 204.53 C 502.92 206.56 502.28 210.14 502.44 212.98 C 502.44 242.66 502.33 272.34 502.43 302.02 C 503.05 305.89 498.97 307.54 496.09 308.76 C 476.58 316.76 456.83 324.18 437.38 332.35 C 397.29 348.83 357.02 364.88 317.00 381.52 C 246.14 410.34 175.29 439.20 104.44 468.03 C 77.67 478.94 50.89 489.79 24.24 500.98 C 19.76 502.82 15.47 505.58 10.51 505.82 C 10.45 465.54 10.32 425.25 10.47 384.97 C 9.85 381.95 12.76 380.38 15.13 379.47 C 31.75 373.11 48.45 366.96 65.00 360.42 C 106.02 344.64 147.18 329.25 188.13 313.28 C 236.70 295.11 284.92 275.98 333.48 257.75 C 334.96 257.28 335.94 256.02 337.05 255.01 C 335.80 253.80 334.60 252.43 332.91 251.85 C 305.29 241.50 278.03 230.14 250.07 220.72 C 211.23 205.79 172.31 191.09 133.53 176.00 C 96.26 161.34 58.78 147.26 21.39 132.91 C 17.67 131.30 13.00 130.56 10.58 127.03 C 10.23 121.36 10.48 115.67 10.42 110.00 C 10.56 75.39 10.18 40.77 10.49 6.17 Z" />
</g>
</svg>
