<?xml version="1.0" encoding="UTF-8" ?>
<!DOCTYPE svg PUBLIC "-//W3C//DTD SVG 1.1//EN" "http://www.w3.org/Graphics/SVG/1.1/DTD/svg11.dtd">
<svg width="486pt" height="535pt" viewBox="0 0 486 535" version="1.1" xmlns="http://www.w3.org/2000/svg">
<g id="#fdce73ff">
<path fill="#fdce73" opacity="1.00" d=" M 25.41 20.40 C 44.78 5.03 70.50 -0.12 94.75 1.60 C 121.41 3.85 147.67 13.58 168.56 30.45 C 183.86 42.54 196.48 58.56 202.75 77.17 C 208.48 94.42 207.60 114.39 197.75 129.99 C 196.37 129.61 195.34 128.61 194.47 127.53 C 186.05 116.70 176.09 107.22 167.15 96.84 C 152.66 81.32 138.41 65.59 124.05 49.96 C 121.85 47.57 119.85 43.66 116.02 44.18 C 108.26 45.11 100.48 46.01 92.77 47.35 C 70.17 49.85 47.75 53.80 25.14 56.15 C 18.76 57.11 12.36 57.89 6.02 59.01 C 4.72 59.26 3.43 59.21 2.14 58.88 C 4.81 43.79 13.21 29.73 25.41 20.40 Z" />
<path fill="#fdce73" opacity="1.00" d=" M 1.47 69.33 C 9.98 68.94 18.48 70.00 27.00 69.83 C 44.00 70.28 61.01 70.85 78.02 71.32 C 87.04 71.48 96.08 71.56 105.08 72.32 C 108.59 72.43 111.33 74.97 114.03 76.92 C 127.65 88.01 141.52 98.79 155.21 109.80 C 164.44 117.61 174.04 124.96 183.58 132.39 C 186.33 134.65 189.63 136.23 192.09 138.84 C 177.59 155.13 156.47 164.72 134.93 166.75 C 111.50 169.44 87.53 164.90 66.18 155.07 C 51.24 148.28 37.46 138.73 26.35 126.61 C 19.41 119.32 13.24 111.12 9.18 101.85 C 4.30 91.77 0.88 80.63 1.47 69.33 Z" />
<path fill="#fdce73" opacity="1.00" d=" M 328.83 134.81 C 329.82 134.09 331.09 134.06 332.04 134.89 C 363.43 155.23 394.94 175.36 426.43 195.52 C 441.81 205.10 456.66 215.49 472.20 224.80 C 476.81 227.86 481.87 230.29 485.99 234.04 C 484.36 235.43 482.63 236.70 480.79 237.79 C 472.00 243.00 463.34 248.43 454.50 253.56 C 400.96 287.10 346.97 319.90 293.32 353.25 C 218.82 399.48 144.14 445.42 69.68 491.70 C 51.32 502.96 32.91 514.15 14.79 525.79 C 10.02 528.75 5.42 532.18 0.00 533.89 L 0.00 338.52 C 6.63 332.70 14.73 328.91 22.07 324.10 C 119.39 264.10 216.65 204.01 313.98 144.03 C 318.87 140.86 323.73 137.64 328.83 134.81 Z" />
</g>
</svg>
