<svg id="visual" viewBox="0 0 960 540" width="960" height="540" xmlns="http://www.w3.org/2000/svg" xmlns:xlink="http://www.w3.org/1999/xlink" version="1.1"><path d="M0 393L14.5 394.8C29 396.7 58 400.3 87.2 402C116.3 403.7 145.7 403.3 174.8 400.5C204 397.7 233 392.3 262 393.5C291 394.7 320 402.3 349 403C378 403.7 407 397.3 436.2 394.2C465.3 391 494.7 391 523.8 395.5C553 400 582 409 611 409C640 409 669 400 698 398.3C727 396.7 756 402.3 785.2 403.7C814.3 405 843.7 402 872.8 401.2C902 400.3 931 401.7 945.5 402.3L960 403L960 541L945.5 541C931 541 902 541 872.8 541C843.7 541 814.3 541 785.2 541C756 541 727 541 698 541C669 541 640 541 611 541C582 541 553 541 523.8 541C494.7 541 465.3 541 436.2 541C407 541 378 541 349 541C320 541 291 541 262 541C233 541 204 541 174.8 541C145.7 541 116.3 541 87.2 541C58 541 29 541 14.5 541L0 541Z" fill="#fac666"></path><path d="M0 414L14.5 417.5C29 421 58 428 87.2 429.2C116.3 430.3 145.7 425.7 174.8 422.5C204 419.3 233 417.7 262 417.2C291 416.7 320 417.3 349 417.7C378 418 407 418 436.2 420C465.3 422 494.7 426 523.8 430.2C553 434.3 582 438.7 611 437.3C640 436 669 429 698 424.3C727 419.7 756 417.3 785.2 416.8C814.3 416.3 843.7 417.7 872.8 421.3C902 425 931 431 945.5 434L960 437L960 541L945.5 541C931 541 902 541 872.8 541C843.7 541 814.3 541 785.2 541C756 541 727 541 698 541C669 541 640 541 611 541C582 541 553 541 523.8 541C494.7 541 465.3 541 436.2 541C407 541 378 541 349 541C320 541 291 541 262 541C233 541 204 541 174.8 541C145.7 541 116.3 541 87.2 541C58 541 29 541 14.5 541L0 541Z" fill="#d68167"></path><path d="M0 443L14.5 445.2C29 447.3 58 451.7 87.2 451.7C116.3 451.7 145.7 447.3 174.8 447.3C204 447.3 233 451.7 262 457.2C291 462.7 320 469.3 349 470.8C378 472.3 407 468.7 436.2 464.3C465.3 460 494.7 455 523.8 451.8C553 448.7 582 447.3 611 451C640 454.7 669 463.3 698 468.2C727 473 756 474 785.2 468.5C814.3 463 843.7 451 872.8 450.7C902 450.3 931 461.7 945.5 467.3L960 473L960 541L945.5 541C931 541 902 541 872.8 541C843.7 541 814.3 541 785.2 541C756 541 727 541 698 541C669 541 640 541 611 541C582 541 553 541 523.8 541C494.7 541 465.3 541 436.2 541C407 541 378 541 349 541C320 541 291 541 262 541C233 541 204 541 174.8 541C145.7 541 116.3 541 87.2 541C58 541 29 541 14.5 541L0 541Z" fill="#905261"></path><path d="M0 467L14.5 472.3C29 477.7 58 488.3 87.2 493.3C116.3 498.3 145.7 497.7 174.8 497.5C204 497.3 233 497.7 262 496.7C291 495.7 320 493.3 349 490.5C378 487.7 407 484.3 436.2 486.5C465.3 488.7 494.7 496.3 523.8 498C553 499.7 582 495.3 611 494.5C640 493.7 669 496.3 698 493.3C727 490.3 756 481.7 785.2 480.5C814.3 479.3 843.7 485.7 872.8 487.5C902 489.3 931 486.7 945.5 485.3L960 484L960 541L945.5 541C931 541 902 541 872.8 541C843.7 541 814.3 541 785.2 541C756 541 727 541 698 541C669 541 640 541 611 541C582 541 553 541 523.8 541C494.7 541 465.3 541 436.2 541C407 541 378 541 349 541C320 541 291 541 262 541C233 541 204 541 174.8 541C145.7 541 116.3 541 87.2 541C58 541 29 541 14.5 541L0 541Z" fill="#433041"></path><path d="M0 519L14.5 520C29 521 58 523 87.2 524.8C116.3 526.7 145.7 528.3 174.8 524.7C204 521 233 512 262 510.3C291 508.7 320 514.3 349 517C378 519.7 407 519.3 436.2 517.5C465.3 515.7 494.7 512.3 523.8 509.5C553 506.7 582 504.3 611 506.2C640 508 669 514 698 516.3C727 518.7 756 517.3 785.2 516.2C814.3 515 843.7 514 872.8 510.3C902 506.7 931 500.3 945.5 497.2L960 494L960 541L945.5 541C931 541 902 541 872.8 541C843.7 541 814.3 541 785.2 541C756 541 727 541 698 541C669 541 640 541 611 541C582 541 553 541 523.8 541C494.7 541 465.3 541 436.2 541C407 541 378 541 349 541C320 541 291 541 262 541C233 541 204 541 174.8 541C145.7 541 116.3 541 87.2 541C58 541 29 541 14.5 541L0 541Z" fill="#09090b"></path></svg>