<svg id="visual" viewBox="0 0 960 540" width="960" height="540" xmlns="http://www.w3.org/2000/svg" xmlns:xlink="http://www.w3.org/1999/xlink" version="1.1">
    <path d="M0 336L14.5 339.8C29 343.7 58 351.3 87.2 353.3C116.3 355.3 145.7 351.7 174.8 351.7C204 351.7 233 355.3 262 359.5C291 363.7 320 368.3 349 364.7C378 361 407 349 436.2 344.8C465.3 340.7 494.7 344.3 523.8 347.5C553 350.7 582 353.3 611 356.5C640 359.7 669 363.3 698 365C727 366.7 756 366.3 785.2 367.3C814.3 368.3 843.7 370.7 872.8 366C902 361.3 931 349.7 945.5 343.8L960 338L960 541L945.5 541C931 541 902 541 872.8 541C843.7 541 814.3 541 785.2 541C756 541 727 541 698 541C669 541 640 541 611 541C582 541 553 541 523.8 541C494.7 541 465.3 541 436.2 541C407 541 378 541 349 541C320 541 291 541 262 541C233 541 204 541 174.8 541C145.7 541 116.3 541 87.2 541C58 541 29 541 14.5 541L0 541Z" fill="#09090b">
    </path>
    <path d="M0 401L14.5 397.7C29 394.3 58 387.7 87.2 383.7C116.3 379.7 145.7 378.3 174.8 377.7C204 377 233 377 262 379C291 381 320 385 349 388.7C378 392.3 407 395.7 436.2 393.7C465.3 391.7 494.7 384.3 523.8 379.2C553 374 582 371 611 374.3C640 377.7 669 387.3 698 387.2C727 387 756 377 785.2 374.3C814.3 371.7 843.7 376.3 872.8 380.7C902 385 931 389 945.5 391L960 393L960 541L945.5 541C931 541 902 541 872.8 541C843.7 541 814.3 541 785.2 541C756 541 727 541 698 541C669 541 640 541 611 541C582 541 553 541 523.8 541C494.7 541 465.3 541 436.2 541C407 541 378 541 349 541C320 541 291 541 262 541C233 541 204 541 174.8 541C145.7 541 116.3 541 87.2 541C58 541 29 541 14.5 541L0 541Z" fill="#352938">
    </path>
    <path d="M0 421L14.5 421.5C29 422 58 423 87.2 423.7C116.3 424.3 145.7 424.7 174.8 420.8C204 417 233 409 262 405C291 401 320 401 349 401.2C378 401.3 407 401.7 436.2 402.2C465.3 402.7 494.7 403.3 523.8 406.5C553 409.7 582 415.3 611 414.3C640 413.3 669 405.7 698 405.5C727 405.3 756 412.7 785.2 418.7C814.3 424.7 843.7 429.3 872.8 430.3C902 431.3 931 428.7 945.5 427.3L960 426L960 541L945.5 541C931 541 902 541 872.8 541C843.7 541 814.3 541 785.2 541C756 541 727 541 698 541C669 541 640 541 611 541C582 541 553 541 523.8 541C494.7 541 465.3 541 436.2 541C407 541 378 541 349 541C320 541 291 541 262 541C233 541 204 541 174.8 541C145.7 541 116.3 541 87.2 541C58 541 29 541 14.5 541L0 541Z" fill="#704458">
    </path>
    <path d="M0 467L14.5 462.5C29 458 58 449 87.2 445.5C116.3 442 145.7 444 174.8 441.8C204 439.7 233 433.3 262 434.7C291 436 320 445 349 445.3C378 445.7 407 437.3 436.2 433.5C465.3 429.7 494.7 430.3 523.8 436C553 441.7 582 452.3 611 452C640 451.7 669 440.3 698 440.5C727 440.7 756 452.3 785.2 452.5C814.3 452.7 843.7 441.3 872.8 435.3C902 429.3 931 428.7 945.5 428.3L960 428L960 541L945.5 541C931 541 902 541 872.8 541C843.7 541 814.3 541 785.2 541C756 541 727 541 698 541C669 541 640 541 611 541C582 541 553 541 523.8 541C494.7 541 465.3 541 436.2 541C407 541 378 541 349 541C320 541 291 541 262 541C233 541 204 541 174.8 541C145.7 541 116.3 541 87.2 541C58 541 29 541 14.5 541L0 541Z" fill="#af6266">
    </path>
    <path d="M0 468L14.5 470.2C29 472.3 58 476.7 87.2 479.3C116.3 482 145.7 483 174.8 478.8C204 474.7 233 465.3 262 465.7C291 466 320 476 349 482.5C378 489 407 492 436.2 493.3C465.3 494.7 494.7 494.3 523.8 490.2C553 486 582 478 611 476.2C640 474.3 669 478.7 698 478.3C727 478 756 473 785.2 472.3C814.3 471.7 843.7 475.3 872.8 476.3C902 477.3 931 475.7 945.5 474.8L960 474L960 541L945.5 541C931 541 902 541 872.8 541C843.7 541 814.3 541 785.2 541C756 541 727 541 698 541C669 541 640 541 611 541C582 541 553 541 523.8 541C494.7 541 465.3 541 436.2 541C407 541 378 541 349 541C320 541 291 541 262 541C233 541 204 541 174.8 541C145.7 541 116.3 541 87.2 541C58 541 29 541 14.5 541L0 541Z" fill="#e18e66">
    </path>
    <path d="M0 492L14.5 497.2C29 502.3 58 512.7 87.2 516.2C116.3 519.7 145.7 516.3 174.8 511.2C204 506 233 499 262 497.8C291 496.7 320 501.3 349 502C378 502.7 407 499.3 436.2 496.7C465.3 494 494.7 492 523.8 493.5C553 495 582 500 611 502.2C640 504.3 669 503.7 698 507.5C727 511.3 756 519.7 785.2 517.5C814.3 515.3 843.7 502.7 872.8 499.3C902 496 931 502 945.5 505L960 508L960 541L945.5 541C931 541 902 541 872.8 541C843.7 541 814.3 541 785.2 541C756 541 727 541 698 541C669 541 640 541 611 541C582 541 553 541 523.8 541C494.7 541 465.3 541 436.2 541C407 541 378 541 349 541C320 541 291 541 262 541C233 541 204 541 174.8 541C145.7 541 116.3 541 87.2 541C58 541 29 541 14.5 541L0 541Z" fill="#fac666">
    </path>
</svg>